<svg xmlns="http://www.w3.org/2000/svg" xmlns:xlink="http://www.w3.org/1999/xlink" width="500" zoomAndPan="magnify" viewBox="0 0 375 374.999991" height="500" preserveAspectRatio="xMidYMid meet" version="1.0"><defs><g/><clipPath id="f85441adb2"><path d="M 157.722656 118.234375 L 214.546875 118.234375 L 214.546875 175.058594 L 157.722656 175.058594 Z M 157.722656 118.234375 " clip-rule="nonzero"/></clipPath><clipPath id="cc39a71c2c"><path d="M 186.132812 118.234375 C 184.269531 118.234375 182.421875 118.414062 180.589844 118.777344 C 178.761719 119.144531 176.984375 119.683594 175.261719 120.394531 C 173.539062 121.109375 171.902344 121.984375 170.347656 123.023438 C 168.796875 124.058594 167.363281 125.234375 166.042969 126.554688 C 164.726562 127.875 163.546875 129.308594 162.511719 130.859375 C 161.472656 132.410156 160.597656 134.050781 159.886719 135.773438 C 159.171875 137.496094 158.632812 139.273438 158.269531 141.101562 C 157.902344 142.933594 157.722656 144.78125 157.722656 146.644531 C 157.722656 148.511719 157.902344 150.359375 158.269531 152.1875 C 158.632812 154.019531 159.171875 155.792969 159.886719 157.519531 C 160.597656 159.242188 161.472656 160.878906 162.511719 162.429688 C 163.546875 163.980469 164.726562 165.417969 166.042969 166.734375 C 167.363281 168.054688 168.796875 169.234375 170.347656 170.269531 C 171.902344 171.304688 173.539062 172.179688 175.261719 172.894531 C 176.984375 173.609375 178.761719 174.148438 180.589844 174.511719 C 182.421875 174.875 184.269531 175.058594 186.132812 175.058594 C 188 175.058594 189.847656 174.875 191.675781 174.511719 C 193.507812 174.148438 195.285156 173.609375 197.007812 172.894531 C 198.730469 172.179688 200.367188 171.304688 201.917969 170.269531 C 203.46875 169.234375 204.90625 168.054688 206.226562 166.734375 C 207.542969 165.417969 208.722656 163.980469 209.757812 162.429688 C 210.792969 160.878906 211.667969 159.242188 212.382812 157.519531 C 213.097656 155.792969 213.636719 154.019531 214 152.1875 C 214.363281 150.359375 214.546875 148.511719 214.546875 146.644531 C 214.546875 144.78125 214.363281 142.933594 214 141.101562 C 213.636719 139.273438 213.097656 137.496094 212.382812 135.773438 C 211.667969 134.050781 210.792969 132.410156 209.757812 130.859375 C 208.722656 129.308594 207.542969 127.875 206.226562 126.554688 C 204.90625 125.234375 203.46875 124.058594 201.917969 123.023438 C 200.367188 121.984375 198.730469 121.109375 197.007812 120.394531 C 195.285156 119.683594 193.507812 119.144531 191.675781 118.777344 C 189.847656 118.414062 188 118.234375 186.132812 118.234375 Z M 186.132812 118.234375 " clip-rule="nonzero"/></clipPath><clipPath id="07b1401c3d"><path d="M 0.722656 0.234375 L 57.546875 0.234375 L 57.546875 57.058594 L 0.722656 57.058594 Z M 0.722656 0.234375 " clip-rule="nonzero"/></clipPath><clipPath id="8cd8e193a1"><path d="M 29.132812 0.234375 C 27.269531 0.234375 25.421875 0.414062 23.589844 0.777344 C 21.761719 1.144531 19.984375 1.683594 18.261719 2.394531 C 16.539062 3.109375 14.902344 3.984375 13.347656 5.023438 C 11.796875 6.058594 10.363281 7.234375 9.042969 8.554688 C 7.726562 9.875 6.546875 11.308594 5.511719 12.859375 C 4.472656 14.410156 3.597656 16.050781 2.886719 17.773438 C 2.171875 19.496094 1.632812 21.273438 1.269531 23.101562 C 0.902344 24.933594 0.722656 26.78125 0.722656 28.644531 C 0.722656 30.511719 0.902344 32.359375 1.269531 34.1875 C 1.632812 36.019531 2.171875 37.792969 2.886719 39.519531 C 3.597656 41.242188 4.472656 42.878906 5.511719 44.429688 C 6.546875 45.980469 7.726562 47.417969 9.042969 48.734375 C 10.363281 50.054688 11.796875 51.234375 13.347656 52.269531 C 14.902344 53.304688 16.539062 54.179688 18.261719 54.894531 C 19.984375 55.609375 21.761719 56.148438 23.589844 56.511719 C 25.421875 56.875 27.269531 57.058594 29.132812 57.058594 C 31 57.058594 32.847656 56.875 34.675781 56.511719 C 36.507812 56.148438 38.285156 55.609375 40.007812 54.894531 C 41.730469 54.179688 43.367188 53.304688 44.917969 52.269531 C 46.46875 51.234375 47.90625 50.054688 49.226562 48.734375 C 50.542969 47.417969 51.722656 45.980469 52.757812 44.429688 C 53.792969 42.878906 54.667969 41.242188 55.382812 39.519531 C 56.097656 37.792969 56.636719 36.019531 57 34.1875 C 57.363281 32.359375 57.546875 30.511719 57.546875 28.644531 C 57.546875 26.78125 57.363281 24.933594 57 23.101562 C 56.636719 21.273438 56.097656 19.496094 55.382812 17.773438 C 54.667969 16.050781 53.792969 14.410156 52.757812 12.859375 C 51.722656 11.308594 50.542969 9.875 49.226562 8.554688 C 47.90625 7.234375 46.46875 6.058594 44.917969 5.023438 C 43.367188 3.984375 41.730469 3.109375 40.007812 2.394531 C 38.285156 1.683594 36.507812 1.144531 34.675781 0.777344 C 32.847656 0.414062 31 0.234375 29.132812 0.234375 Z M 29.132812 0.234375 " clip-rule="nonzero"/></clipPath><clipPath id="cbbd3e18d8"><rect x="0" width="58" y="0" height="58"/></clipPath><clipPath id="21be4ac006"><path d="M 193 134.042969 L 196 134.042969 L 196 159.542969 L 193 159.542969 Z M 193 134.042969 " clip-rule="nonzero"/></clipPath><clipPath id="2a801b7383"><path d="M 199 142 L 205.945312 142 L 205.945312 151 L 199 151 Z M 199 142 " clip-rule="nonzero"/></clipPath><clipPath id="e849d4bd99"><path d="M 175 134.042969 L 179 134.042969 L 179 159.542969 L 175 159.542969 Z M 175 134.042969 " clip-rule="nonzero"/></clipPath><clipPath id="c44238a97a"><path d="M 165.445312 142 L 172 142 L 172 151 L 165.445312 151 Z M 165.445312 142 " clip-rule="nonzero"/></clipPath></defs><rect x="-37.5" width="450" fill="#ffffff" y="-37.499999" height="449.999989" fill-opacity="1"/><rect x="-37.5" width="450" fill="#000000" y="-37.499999" height="449.999989" fill-opacity="1"/><g clip-path="url(#f85441adb2)"><g clip-path="url(#cc39a71c2c)"><g transform="matrix(1, 0, 0, 1, 157, 118)"><g clip-path="url(#cbbd3e18d8)"><g clip-path="url(#07b1401c3d)"><g clip-path="url(#8cd8e193a1)"><path fill="#ff751f" d="M 0.722656 0.234375 L 57.546875 0.234375 L 57.546875 57.058594 L 0.722656 57.058594 Z M 0.722656 0.234375 " fill-opacity="1" fill-rule="nonzero"/></g></g></g></g></g></g><path fill="#401d35" d="M 200.851562 156.617188 C 200.195312 156.617188 199.667969 156.085938 199.667969 155.433594 L 199.667969 138.175781 C 199.667969 137.523438 200.195312 136.992188 200.847656 136.992188 C 201.503906 136.992188 202.035156 137.523438 202.035156 138.175781 L 202.035156 155.433594 C 202.035156 156.085938 201.503906 156.617188 200.851562 156.617188 Z M 200.851562 156.617188 " fill-opacity="1" fill-rule="nonzero"/><path fill="#401d35" d="M 197.78125 156.617188 C 197.125 156.617188 196.597656 156.085938 196.597656 155.433594 L 196.597656 138.175781 C 196.597656 137.523438 197.125 136.992188 197.78125 136.992188 C 198.433594 136.992188 198.964844 137.523438 198.964844 138.175781 L 198.964844 155.433594 C 198.964844 156.085938 198.433594 156.617188 197.78125 156.617188 Z M 197.78125 156.617188 " fill-opacity="1" fill-rule="nonzero"/><g clip-path="url(#21be4ac006)"><path fill="#401d35" d="M 194.710938 159.566406 C 194.058594 159.566406 193.527344 159.039062 193.527344 158.382812 L 193.527344 135.226562 C 193.527344 134.574219 194.058594 134.042969 194.710938 134.042969 C 195.363281 134.042969 195.894531 134.574219 195.894531 135.226562 L 195.894531 158.382812 C 195.894531 159.039062 195.363281 159.566406 194.710938 159.566406 Z M 194.710938 159.566406 " fill-opacity="1" fill-rule="nonzero"/></g><path fill="#401d35" d="M 194.710938 149.765625 L 176.835938 149.765625 C 176.183594 149.765625 175.652344 149.234375 175.652344 148.582031 L 175.652344 145.03125 C 175.652344 144.375 176.183594 143.847656 176.835938 143.847656 L 194.710938 143.847656 C 195.363281 143.847656 195.894531 144.375 195.894531 145.03125 L 195.894531 148.582031 C 195.894531 149.234375 195.363281 149.765625 194.710938 149.765625 Z M 178.019531 147.398438 L 193.527344 147.398438 L 193.527344 146.214844 L 178.019531 146.214844 Z M 178.019531 147.398438 " fill-opacity="1" fill-rule="nonzero"/><g clip-path="url(#2a801b7383)"><path fill="#401d35" d="M 204.976562 150.949219 L 200.847656 150.949219 C 200.195312 150.949219 199.667969 150.417969 199.667969 149.765625 L 199.667969 143.84375 C 199.667969 143.191406 200.195312 142.660156 200.847656 142.660156 L 204.976562 142.660156 C 205.632812 142.660156 206.160156 143.191406 206.160156 143.84375 L 206.160156 149.765625 C 206.160156 150.417969 205.632812 150.949219 204.976562 150.949219 Z M 202.035156 148.582031 L 203.792969 148.582031 L 203.792969 145.027344 L 202.035156 145.027344 Z M 202.035156 148.582031 " fill-opacity="1" fill-rule="nonzero"/></g><path fill="#401d35" d="M 170.695312 156.617188 C 170.042969 156.617188 169.511719 156.085938 169.511719 155.433594 L 169.511719 138.179688 C 169.511719 137.523438 170.042969 136.996094 170.695312 136.996094 C 171.347656 136.996094 171.878906 137.523438 171.878906 138.179688 L 171.878906 155.433594 C 171.878906 156.085938 171.347656 156.617188 170.695312 156.617188 Z M 170.695312 156.617188 " fill-opacity="1" fill-rule="nonzero"/><path fill="#401d35" d="M 173.765625 156.617188 C 173.113281 156.617188 172.582031 156.085938 172.582031 155.433594 L 172.582031 138.179688 C 172.582031 137.523438 173.113281 136.996094 173.765625 136.996094 C 174.417969 136.996094 174.949219 137.523438 174.949219 138.179688 L 174.949219 155.433594 C 174.949219 156.085938 174.417969 156.617188 173.765625 156.617188 Z M 173.765625 156.617188 " fill-opacity="1" fill-rule="nonzero"/><g clip-path="url(#e849d4bd99)"><path fill="#401d35" d="M 176.835938 159.566406 C 176.183594 159.566406 175.652344 159.039062 175.652344 158.382812 L 175.652344 135.226562 C 175.652344 134.574219 176.179688 134.042969 176.835938 134.042969 C 177.488281 134.042969 178.019531 134.574219 178.019531 135.226562 L 178.019531 158.382812 C 178.019531 159.039062 177.488281 159.566406 176.835938 159.566406 Z M 176.835938 159.566406 " fill-opacity="1" fill-rule="nonzero"/></g><g clip-path="url(#c44238a97a)"><path fill="#401d35" d="M 170.695312 150.949219 L 166.570312 150.949219 C 165.914062 150.949219 165.382812 150.421875 165.382812 149.765625 L 165.382812 143.84375 C 165.382812 143.191406 165.914062 142.660156 166.570312 142.660156 L 170.695312 142.660156 C 171.347656 142.660156 171.878906 143.191406 171.878906 143.84375 L 171.878906 149.765625 C 171.878906 150.421875 171.347656 150.949219 170.695312 150.949219 Z M 167.75 148.582031 L 169.511719 148.582031 L 169.511719 145.027344 L 167.75 145.027344 Z M 167.75 148.582031 " fill-opacity="1" fill-rule="nonzero"/></g><g fill="#ffffff" fill-opacity="1"><g transform="translate(111.04696, 225.739658)"><g><path d="M 9.9375 0.34375 C 6.945312 0.34375 4.84375 -0.546875 3.625 -2.328125 C 2.40625 -4.109375 1.796875 -6.566406 1.796875 -9.703125 L 1.796875 -20.390625 C 1.796875 -23.703125 2.390625 -26.21875 3.578125 -27.9375 C 4.773438 -29.65625 6.894531 -30.515625 9.9375 -30.515625 C 12.644531 -30.515625 14.585938 -29.78125 15.765625 -28.3125 C 16.953125 -26.84375 17.546875 -24.675781 17.546875 -21.8125 L 17.546875 -19.421875 L 13.5625 -19.421875 L 13.5625 -21.546875 C 13.5625 -22.941406 13.5 -24.007812 13.375 -24.75 C 13.25 -25.5 12.929688 -26.097656 12.421875 -26.546875 C 11.910156 -26.992188 11.09375 -27.21875 9.96875 -27.21875 C 8.820312 -27.21875 7.96875 -26.972656 7.40625 -26.484375 C 6.851562 -26.003906 6.488281 -25.332031 6.3125 -24.46875 C 6.132812 -23.613281 6.046875 -22.46875 6.046875 -21.03125 L 6.046875 -9.03125 C 6.046875 -7.488281 6.171875 -6.28125 6.421875 -5.40625 C 6.671875 -4.539062 7.078125 -3.921875 7.640625 -3.546875 C 8.203125 -3.171875 8.976562 -2.984375 9.96875 -2.984375 C 11.039062 -2.984375 11.835938 -3.21875 12.359375 -3.6875 C 12.878906 -4.164062 13.207031 -4.816406 13.34375 -5.640625 C 13.488281 -6.460938 13.5625 -7.582031 13.5625 -9 L 13.5625 -11.234375 L 17.546875 -11.234375 L 17.546875 -9 C 17.546875 -5.988281 16.976562 -3.675781 15.84375 -2.0625 C 14.71875 -0.457031 12.75 0.34375 9.9375 0.34375 Z M 9.9375 0.34375 "/></g></g></g><g fill="#ffffff" fill-opacity="1"><g transform="translate(131.775253, 225.739658)"><g><path d="M 10.078125 0.34375 C 7.117188 0.34375 5 -0.492188 3.71875 -2.171875 C 2.4375 -3.859375 1.796875 -6.296875 1.796875 -9.484375 L 1.796875 -20.953125 C 1.796875 -24.085938 2.441406 -26.460938 3.734375 -28.078125 C 5.023438 -29.703125 7.140625 -30.515625 10.078125 -30.515625 C 13.015625 -30.515625 15.125 -29.695312 16.40625 -28.0625 C 17.6875 -26.4375 18.328125 -24.066406 18.328125 -20.953125 L 18.328125 -9.453125 C 18.328125 -6.316406 17.679688 -3.898438 16.390625 -2.203125 C 15.097656 -0.503906 12.992188 0.34375 10.078125 0.34375 Z M 10.078125 -2.984375 C 11.648438 -2.984375 12.707031 -3.441406 13.25 -4.359375 C 13.800781 -5.285156 14.078125 -6.679688 14.078125 -8.546875 L 14.078125 -21.8125 C 14.078125 -23.65625 13.800781 -25.015625 13.25 -25.890625 C 12.707031 -26.773438 11.648438 -27.21875 10.078125 -27.21875 C 8.484375 -27.21875 7.410156 -26.773438 6.859375 -25.890625 C 6.316406 -25.015625 6.046875 -23.65625 6.046875 -21.8125 L 6.046875 -8.546875 C 6.046875 -6.679688 6.316406 -5.285156 6.859375 -4.359375 C 7.410156 -3.441406 8.484375 -2.984375 10.078125 -2.984375 Z M 8.03125 -38.90625 L 12.09375 -38.90625 L 15.34375 -32.375 L 12.3125 -32.375 L 10.046875 -36.890625 L 7.796875 -32.375 L 4.8125 -32.375 Z M 8.03125 -38.90625 "/></g></g></g><g fill="#ffffff" fill-opacity="1"><g transform="translate(153.399893, 225.739658)"><g/></g></g><g fill="#ffffff" fill-opacity="1"><g transform="translate(163.446775, 225.739658)"><g><path d="M 2.359375 -30.25 L 14.046875 -30.25 L 14.046875 -27.21875 L 6.578125 -27.21875 L 6.578125 -17.140625 L 12.359375 -17.140625 L 12.359375 -14.15625 L 6.578125 -14.15625 L 6.578125 0 L 2.359375 0 Z M 2.359375 -30.25 "/></g></g></g><g fill="#ffffff" fill-opacity="1"><g transform="translate(179.543964, 225.739658)"><g><path d="M 10.078125 0.34375 C 7.117188 0.34375 5 -0.492188 3.71875 -2.171875 C 2.4375 -3.859375 1.796875 -6.296875 1.796875 -9.484375 L 1.796875 -20.953125 C 1.796875 -24.085938 2.441406 -26.460938 3.734375 -28.078125 C 5.023438 -29.703125 7.140625 -30.515625 10.078125 -30.515625 C 13.015625 -30.515625 15.125 -29.695312 16.40625 -28.0625 C 17.6875 -26.4375 18.328125 -24.066406 18.328125 -20.953125 L 18.328125 -9.453125 C 18.328125 -6.316406 17.679688 -3.898438 16.390625 -2.203125 C 15.097656 -0.503906 12.992188 0.34375 10.078125 0.34375 Z M 10.078125 -2.984375 C 11.648438 -2.984375 12.707031 -3.441406 13.25 -4.359375 C 13.800781 -5.285156 14.078125 -6.679688 14.078125 -8.546875 L 14.078125 -21.8125 C 14.078125 -23.65625 13.800781 -25.015625 13.25 -25.890625 C 12.707031 -26.773438 11.648438 -27.21875 10.078125 -27.21875 C 8.484375 -27.21875 7.410156 -26.773438 6.859375 -25.890625 C 6.316406 -25.015625 6.046875 -23.65625 6.046875 -21.8125 L 6.046875 -8.546875 C 6.046875 -6.679688 6.316406 -5.285156 6.859375 -4.359375 C 7.410156 -3.441406 8.484375 -2.984375 10.078125 -2.984375 Z M 10.078125 -2.984375 "/></g></g></g><g fill="#ffffff" fill-opacity="1"><g transform="translate(201.168604, 225.739658)"><g><path d="M 2.359375 -30.25 L 8.4375 -30.25 C 11.5 -30.25 13.742188 -29.617188 15.171875 -28.359375 C 16.609375 -27.109375 17.328125 -25.0625 17.328125 -22.21875 C 17.328125 -18.332031 16.082031 -15.976562 13.59375 -15.15625 L 17.890625 0 L 13.8125 0 L 9.859375 -14.1875 L 6.578125 -14.1875 L 6.578125 0 L 2.359375 0 Z M 8.171875 -17.21875 C 9.992188 -17.21875 11.296875 -17.578125 12.078125 -18.296875 C 12.859375 -19.015625 13.25 -20.320312 13.25 -22.21875 C 13.25 -23.46875 13.113281 -24.445312 12.84375 -25.15625 C 12.570312 -25.863281 12.085938 -26.382812 11.390625 -26.71875 C 10.691406 -27.050781 9.707031 -27.21875 8.4375 -27.21875 L 6.578125 -27.21875 L 6.578125 -17.21875 Z M 8.171875 -17.21875 "/></g></g></g><g fill="#ffffff" fill-opacity="1"><g transform="translate(222.046288, 225.739658)"><g><path d="M 2.84375 -30.25 L 6.984375 -30.25 L 12.328125 -5.71875 L 17.703125 -30.25 L 21.8125 -30.25 L 22.375 0 L 18.96875 0 L 18.640625 -21.953125 L 13.515625 0 L 11.125 0 L 6.046875 -21.953125 L 5.71875 0 L 2.28125 0 Z M 2.84375 -30.25 "/></g></g></g><g fill="#ffffff" fill-opacity="1"><g transform="translate(248.189994, 225.739658)"><g><path d="M 2.359375 -30.25 L 14.078125 -30.25 L 14.078125 -27.109375 L 6.578125 -27.109375 L 6.578125 -17.109375 L 12.65625 -17.109375 L 12.65625 -14.109375 L 6.578125 -14.109375 L 6.578125 -3.03125 L 14.15625 -3.03125 L 14.15625 0 L 2.359375 0 Z M 2.359375 -30.25 "/></g></g></g><g fill="#ff751f" fill-opacity="1"><g transform="translate(176.092355, 254.334622)"><g><path d="M 0.375 -13.28125 L 2.109375 -13.28125 L 4.21875 -3.484375 L 6.21875 -13.28125 L 7.90625 -13.28125 L 4.96875 0 L 3.34375 0 Z M 0.375 -13.28125 "/></g></g></g><g fill="#ff751f" fill-opacity="1"><g transform="translate(186.496579, 254.334622)"><g><path d="M 1.03125 -13.28125 L 2.296875 -13.28125 L 6.0625 -4.453125 L 6.0625 -13.28125 L 7.609375 -13.28125 L 7.609375 0 L 6.421875 0 L 2.609375 -9.0625 L 2.609375 0 L 1.03125 0 Z M 1.03125 -13.28125 "/></g></g></g></svg>